<svg xmlns="http://www.w3.org/2000/svg" xmlns:xlink="http://www.w3.org/1999/xlink" preserveAspectRatio="xMidYMid" width="512" height="64" viewBox="0 0 512 64">
  <defs>
    <style>
      .cls-1 {
        fill: #fff;
      }

      .cls-2 {
        fill: #444;
      }

      .cls-2, .cls-3 {
        fill-rule: evenodd;
      }

      .cls-3 {
        fill: #333;
      }
    </style>
  </defs>
  <g>
    <rect y="-32" width="512" height="128" class="cls-1"/>
    <g>
      <path d="M493.501,18.794 C492.541,19.050 489.405,19.690 484.093,20.714 C486.397,25.002 487.869,27.689 488.509,28.841 C490.237,31.785 493.053,35.945 495.293,38.953 L487.869,42.344 C486.269,40.872 485.245,40.233 483.453,39.593 C480.574,38.633 477.182,38.121 473.342,38.121 C464.639,38.121 459.519,40.745 459.519,45.288 C459.519,49.448 464.255,51.752 472.958,51.752 C479.742,51.752 487.229,50.088 492.221,47.464 L493.245,55.655 C485.309,58.087 479.358,59.111 472.958,59.111 C464.767,59.111 458.431,57.383 455.167,54.248 C452.736,51.944 451.392,48.808 451.392,45.608 C451.392,41.960 453.056,38.569 455.999,36.073 C459.711,32.937 465.023,31.465 472.318,31.465 C476.478,31.465 480.190,32.105 483.389,33.385 C480.766,29.801 480.702,29.609 476.478,21.738 C470.846,22.506 461.375,23.146 453.760,23.274 C452.160,23.338 451.904,23.338 450.944,23.466 L450.368,15.786 C452.288,16.042 453.952,16.106 456.575,16.106 C461.375,16.106 469.886,15.530 473.854,15.018 C472.766,12.203 470.014,5.419 469.694,4.907 L477.950,3.819 C478.334,5.995 479.486,9.387 481.470,14.058 C488.061,12.907 493.757,11.563 497.148,10.283 L498.044,17.898 C496.380,18.154 495.677,18.346 493.501,18.794 ZM418.429,20.650 C410.302,24.874 405.502,31.273 405.502,37.737 C405.502,42.728 408.638,46.568 414.014,48.168 C417.149,49.128 421.245,49.832 423.549,49.832 C423.613,49.832 424.189,49.832 424.829,49.768 L423.677,58.471 C422.909,58.279 422.589,58.215 421.501,58.087 C414.462,57.191 410.430,56.039 406.526,53.864 C400.639,50.536 397.375,45.096 397.375,38.441 C397.375,33.001 399.551,27.625 403.454,23.338 C405.886,20.714 408.190,19.050 412.350,16.938 C407.166,17.706 404.670,17.898 390.783,18.922 C386.496,19.242 382.656,19.690 380.160,20.202 L379.712,11.883 C381.120,11.947 381.824,11.947 382.144,11.947 C383.296,11.947 383.296,11.947 392.703,11.307 C396.287,11.115 406.910,10.539 424.637,9.707 C429.884,9.451 430.844,9.387 431.996,9.067 L432.444,17.258 C431.740,17.194 431.740,17.194 431.100,17.194 C427.261,17.194 422.525,18.474 418.429,20.650 ZM333.055,59.175 C332.415,55.975 331.903,54.759 330.303,51.880 C330.751,51.880 331.007,51.880 331.263,51.880 C333.631,51.880 337.214,51.496 340.350,50.920 C345.342,49.960 348.158,48.808 351.037,46.568 C354.109,44.264 355.581,41.448 355.581,37.929 C355.581,32.937 351.869,30.249 345.086,30.249 C340.670,30.249 335.743,30.953 328.255,32.745 C324.159,33.705 323.007,34.025 320.832,34.921 L319.232,27.241 C321.024,27.113 321.024,27.113 325.887,26.026 C334.591,24.106 340.350,23.338 345.662,23.338 C352.957,23.338 357.885,25.450 360.765,29.865 C362.365,32.297 363.133,34.985 363.133,38.121 C363.133,46.632 357.117,53.544 346.942,56.743 C342.974,57.959 341.374,58.215 333.055,59.175 ZM291.965,4.203 L296.253,1.963 C299.132,4.907 300.924,7.339 302.908,10.987 L298.492,13.482 C296.573,9.963 294.461,6.955 291.965,4.203 ZM290.813,17.514 C288.701,13.610 286.909,11.051 284.093,7.979 L288.573,5.739 C291.389,8.747 293.117,11.179 295.293,15.146 L290.813,17.514 ZM299.004,23.210 L299.132,30.825 C296.061,30.505 294.269,30.377 291.069,30.377 C284.733,30.377 280.510,30.825 274.174,32.297 L273.598,25.194 C282.622,23.466 285.757,23.146 292.669,23.146 C294.589,23.146 296.061,23.146 299.004,23.210 ZM278.334,20.074 L276.862,20.330 C272.574,21.098 267.903,21.674 266.367,21.674 C263.999,34.025 260.799,44.712 255.232,59.367 L247.168,56.231 C251.328,48.808 256.447,33.385 258.623,21.930 C258.303,21.930 258.047,21.930 257.983,21.930 L256.575,21.866 L253.504,21.866 C253.440,21.866 252.864,21.866 252.032,21.866 C251.136,21.802 249.984,21.802 249.472,21.802 C249.152,21.802 248.832,21.802 248.256,21.866 L248.384,14.442 C250.688,14.826 253.248,15.018 256.959,15.018 C257.727,15.018 258.431,15.018 259.903,14.954 C260.479,11.883 261.119,6.955 261.119,5.163 C261.119,4.907 261.119,4.523 261.055,4.011 L269.502,4.779 C269.119,6.187 269.055,6.507 268.479,9.771 C268.351,10.539 268.223,11.435 268.031,12.587 C267.967,12.907 267.839,13.418 267.647,14.570 C271.806,14.186 275.582,13.546 278.590,12.651 L278.910,20.010 C278.590,20.074 278.398,20.074 278.334,20.074 ZM198.014,10.731 L198.014,16.426 L205.629,16.426 C207.933,16.426 209.405,16.362 210.877,16.170 C210.685,17.578 210.621,18.922 210.621,20.970 L210.621,43.880 C210.621,46.248 210.685,47.208 210.877,48.616 C209.213,48.424 208.189,48.360 205.245,48.360 L184.575,48.360 C181.503,48.360 180.479,48.424 178.815,48.616 C179.007,47.080 179.071,46.184 179.071,43.880 L179.071,20.970 C179.071,18.922 179.007,17.770 178.815,16.170 C180.287,16.362 181.759,16.426 184.063,16.426 L191.486,16.426 L191.486,10.731 L173.888,10.731 C171.008,10.731 168.640,10.859 166.016,11.115 L166.016,4.075 C168.384,4.331 170.752,4.459 173.760,4.459 L215.997,4.459 C218.876,4.459 221.372,4.331 223.868,4.075 L223.868,11.115 C221.564,10.859 218.684,10.731 216.061,10.731 L198.014,10.731 ZM198.014,42.664 L204.477,42.664 L204.477,34.857 L198.014,34.857 L198.014,42.664 ZM198.014,29.097 L204.477,29.097 L204.477,22.378 L198.014,22.378 L198.014,29.097 ZM191.486,22.378 L185.279,22.378 L185.279,29.097 L191.486,29.097 L191.486,22.378 ZM191.486,34.857 L185.279,34.857 L185.279,42.664 L191.486,42.664 L191.486,34.857 ZM135.677,27.177 C139.388,31.465 140.860,33.705 142.140,37.353 C142.908,39.529 143.292,41.832 143.292,44.072 C143.292,50.728 140.540,52.968 132.541,52.968 C130.941,52.968 130.109,52.904 127.997,52.712 C127.869,49.896 127.485,48.104 126.269,45.416 C128.509,45.864 130.045,45.992 131.581,45.992 C135.357,45.992 136.189,45.352 136.189,42.408 C136.189,40.297 135.165,37.353 133.373,34.281 C131.965,31.913 130.749,30.313 128.061,27.241 C131.197,21.994 133.309,17.194 135.229,10.923 L124.861,10.923 L124.861,53.800 C124.861,57.127 124.989,59.623 125.245,61.479 L117.438,61.479 C117.694,59.431 117.822,56.871 117.822,53.736 L117.822,9.451 C117.822,7.467 117.758,5.931 117.630,4.139 C119.230,4.331 120.830,4.395 123.197,4.395 L135.101,4.395 C137.852,4.395 139.196,4.331 140.540,4.075 L143.996,8.747 C143.356,10.091 143.356,10.091 142.972,11.051 C141.308,15.594 138.300,22.250 135.677,27.177 ZM104.383,41.704 C103.551,45.480 102.591,48.104 100.927,51.240 C98.623,55.399 96.575,57.767 92.032,61.287 C90.304,58.919 88.960,57.575 86.400,55.655 C90.240,53.096 91.968,51.496 93.888,48.808 C95.487,46.568 96.511,44.392 97.279,41.704 L92.352,41.704 C89.984,41.704 88.064,41.832 86.080,42.024 L86.080,34.985 C87.872,35.241 89.728,35.305 92.544,35.305 L98.303,35.305 C98.495,33.193 98.559,31.849 98.751,28.649 L93.632,28.649 C91.392,28.649 89.728,28.713 88.192,28.905 L88.192,22.250 C89.536,22.442 91.200,22.506 93.632,22.506 L98.943,22.506 C98.943,20.906 98.943,20.330 98.943,19.306 L98.943,16.234 L93.376,16.234 C90.944,16.234 88.896,16.362 86.848,16.554 L86.848,9.515 C88.832,9.707 91.008,9.835 93.504,9.835 L98.943,9.835 L98.943,9.003 C98.943,6.635 98.815,4.715 98.623,2.731 L106.111,2.731 C105.855,4.395 105.791,5.803 105.791,9.835 L109.310,9.835 C112.062,9.835 113.662,9.771 115.646,9.579 L115.646,16.490 C113.662,16.362 111.550,16.234 109.374,16.234 L105.791,16.234 L105.791,22.506 L109.118,22.506 C111.358,22.506 113.150,22.442 114.686,22.250 L114.686,28.905 C113.214,28.713 111.486,28.649 109.310,28.649 L105.599,28.649 C105.471,31.529 105.407,32.553 105.215,35.305 L109.374,35.305 C112.382,35.305 113.854,35.241 115.646,35.049 L115.646,42.024 C113.854,41.768 111.934,41.704 109.182,41.704 L104.383,41.704 ZM167.360,17.386 L174.784,17.386 C174.592,18.858 174.528,20.202 174.528,23.082 L174.528,52.584 L215.229,52.584 L215.229,22.954 C215.229,20.394 215.165,18.986 214.909,17.386 L222.396,17.386 C222.140,19.626 222.012,22.314 222.012,24.554 L222.012,53.224 C222.012,56.551 222.140,59.111 222.460,61.799 L215.037,61.799 L215.037,58.791 L174.656,58.791 L174.656,61.799 L167.360,61.799 C167.616,59.111 167.744,56.679 167.744,53.288 L167.744,24.490 C167.744,21.930 167.616,19.690 167.360,17.386 ZM280.126,39.209 C277.566,42.472 276.798,44.008 276.798,46.312 C276.798,49.576 279.998,51.240 286.397,51.240 C291.069,51.240 297.212,50.216 300.924,48.872 L301.500,56.679 C300.348,56.807 300.028,56.871 298.364,57.127 C293.053,57.959 290.237,58.215 286.461,58.215 C280.766,58.215 276.670,57.383 273.598,55.655 C270.846,54.056 269.055,50.984 269.055,47.784 C269.055,44.392 270.270,41.512 273.790,36.649 L280.126,39.209 Z" class="cls-2"/>
      <path d="M59.000,2.000 L59.000,62.000 L9.000,62.000 L59.000,2.000 Z" class="cls-3"/>
    </g>
  </g>
</svg>
