<svg xmlns="http://www.w3.org/2000/svg" xmlns:xlink="http://www.w3.org/1999/xlink" preserveAspectRatio="xMidYMid" width="512" height="64" viewBox="0 0 512 64">
  <defs>
    <style>
      .cls-1 {
        fill: #fff;
      }

      .cls-2 {
        fill: #444;
      }

      .cls-2, .cls-3 {
        fill-rule: evenodd;
      }

      .cls-3 {
        fill: #333;
      }
    </style>
  </defs>
  <g>
    <rect y="-32" width="512" height="128" class="cls-1"/>
    <g>
      <path d="M493.181,18.794 C492.221,19.050 489.085,19.690 483.773,20.714 C486.077,25.002 487.549,27.689 488.189,28.841 C489.917,31.785 492.733,35.945 494.973,38.953 L487.549,42.344 C485.949,40.872 484.925,40.233 483.133,39.593 C480.254,38.633 476.862,38.121 473.022,38.121 C464.319,38.121 459.199,40.745 459.199,45.288 C459.199,49.448 463.935,51.752 472.638,51.752 C479.422,51.752 486.909,50.088 491.901,47.464 L492.925,55.655 C484.989,58.087 479.038,59.111 472.638,59.111 C464.447,59.111 458.111,57.383 454.848,54.248 C452.416,51.944 451.072,48.808 451.072,45.608 C451.072,41.960 452.736,38.569 455.679,36.073 C459.391,32.937 464.703,31.465 471.998,31.465 C476.158,31.465 479.870,32.105 483.069,33.385 C480.446,29.801 480.382,29.609 476.158,21.738 C470.526,22.506 461.055,23.146 453.440,23.274 C451.840,23.338 451.584,23.338 450.624,23.466 L450.048,15.786 C451.968,16.042 453.632,16.106 456.255,16.106 C461.055,16.106 469.566,15.530 473.534,15.018 C472.446,12.203 469.694,5.419 469.374,4.907 L477.630,3.819 C478.014,5.995 479.166,9.387 481.150,14.058 C487.741,12.907 493.437,11.563 496.828,10.283 L497.724,17.898 C496.061,18.154 495.357,18.346 493.181,18.794 ZM418.749,20.650 C410.622,24.874 405.822,31.273 405.822,37.737 C405.822,42.728 408.958,46.568 414.334,48.168 C417.469,49.128 421.565,49.832 423.869,49.832 C423.933,49.832 424.509,49.832 425.149,49.768 L423.997,58.471 C423.229,58.279 422.909,58.215 421.821,58.087 C414.782,57.191 410.750,56.039 406.846,53.864 C400.959,50.536 397.695,45.096 397.695,38.441 C397.695,33.001 399.871,27.625 403.774,23.338 C406.206,20.714 408.510,19.050 412.670,16.938 C407.486,17.706 404.990,17.898 391.103,18.922 C386.816,19.242 382.976,19.690 380.480,20.202 L380.032,11.883 C381.440,11.947 382.144,11.947 382.464,11.947 C383.616,11.947 383.616,11.947 393.023,11.307 C396.607,11.115 407.230,10.539 424.957,9.707 C430.204,9.451 431.164,9.387 432.316,9.067 L432.764,17.258 C432.060,17.194 432.060,17.194 431.420,17.194 C427.581,17.194 422.845,18.474 418.749,20.650 ZM333.375,59.175 C332.735,55.975 332.223,54.759 330.623,51.880 C331.071,51.880 331.327,51.880 331.583,51.880 C333.951,51.880 337.535,51.496 340.670,50.920 C345.662,49.960 348.478,48.808 351.357,46.568 C354.429,44.264 355.901,41.448 355.901,37.929 C355.901,32.937 352.189,30.249 345.406,30.249 C340.990,30.249 336.063,30.953 328.575,32.745 C324.479,33.705 323.328,34.025 321.152,34.921 L319.552,27.241 C321.344,27.113 321.344,27.113 326.207,26.026 C334.911,24.106 340.670,23.338 345.982,23.338 C353.277,23.338 358.205,25.450 361.085,29.865 C362.685,32.297 363.453,34.985 363.453,38.121 C363.453,46.632 357.437,53.544 347.262,56.743 C343.294,57.959 341.694,58.215 333.375,59.175 ZM292.285,4.203 L296.573,1.963 C299.452,4.907 301.244,7.339 303.228,10.987 L298.812,13.482 C296.893,9.963 294.781,6.955 292.285,4.203 ZM291.133,17.514 C289.021,13.610 287.229,11.051 284.413,7.979 L288.893,5.739 C291.709,8.747 293.437,11.179 295.613,15.146 L291.133,17.514 ZM299.324,23.210 L299.452,30.825 C296.381,30.505 294.589,30.377 291.389,30.377 C285.053,30.377 280.830,30.825 274.494,32.297 L273.918,25.194 C282.942,23.466 286.077,23.146 292.989,23.146 C294.909,23.146 296.381,23.146 299.324,23.210 ZM278.654,20.074 L277.182,20.330 C272.894,21.098 268.223,21.674 266.687,21.674 C264.319,34.025 261.119,44.712 255.552,59.367 L247.488,56.231 C251.648,48.808 256.767,33.385 258.943,21.930 C258.623,21.930 258.367,21.930 258.303,21.930 L256.895,21.866 L253.824,21.866 C253.760,21.866 253.184,21.866 252.352,21.866 C251.456,21.802 250.304,21.802 249.792,21.802 C249.472,21.802 249.152,21.802 248.576,21.866 L248.704,14.442 C251.008,14.826 253.568,15.018 257.279,15.018 C258.047,15.018 258.751,15.018 260.223,14.954 C260.799,11.883 261.439,6.955 261.439,5.163 C261.439,4.907 261.439,4.523 261.375,4.011 L269.823,4.779 C269.439,6.187 269.375,6.507 268.799,9.771 C268.671,10.539 268.543,11.435 268.351,12.587 C268.287,12.907 268.159,13.418 267.967,14.570 C272.126,14.186 275.902,13.546 278.910,12.651 L279.230,20.010 C278.910,20.074 278.718,20.074 278.654,20.074 ZM198.334,10.731 L198.334,16.426 L205.949,16.426 C208.253,16.426 209.725,16.362 211.197,16.170 C211.005,17.578 210.941,18.922 210.941,20.970 L210.941,43.880 C210.941,46.248 211.005,47.208 211.197,48.616 C209.533,48.424 208.509,48.360 205.565,48.360 L184.895,48.360 C181.823,48.360 180.799,48.424 179.135,48.616 C179.327,47.080 179.391,46.184 179.391,43.880 L179.391,20.970 C179.391,18.922 179.327,17.770 179.135,16.170 C180.607,16.362 182.079,16.426 184.383,16.426 L191.806,16.426 L191.806,10.731 L174.208,10.731 C171.328,10.731 168.960,10.859 166.336,11.115 L166.336,4.075 C168.704,4.331 171.072,4.459 174.080,4.459 L216.317,4.459 C219.196,4.459 221.692,4.331 224.188,4.075 L224.188,11.115 C221.884,10.859 219.004,10.731 216.381,10.731 L198.334,10.731 ZM198.334,42.664 L204.797,42.664 L204.797,34.857 L198.334,34.857 L198.334,42.664 ZM198.334,29.097 L204.797,29.097 L204.797,22.378 L198.334,22.378 L198.334,29.097 ZM191.806,22.378 L185.599,22.378 L185.599,29.097 L191.806,29.097 L191.806,22.378 ZM191.806,34.857 L185.599,34.857 L185.599,42.664 L191.806,42.664 L191.806,34.857 ZM135.997,27.177 C139.708,31.465 141.180,33.705 142.460,37.353 C143.228,39.529 143.612,41.832 143.612,44.072 C143.612,50.728 140.860,52.968 132.861,52.968 C131.261,52.968 130.429,52.904 128.317,52.712 C128.189,49.896 127.805,48.104 126.589,45.416 C128.829,45.864 130.365,45.992 131.901,45.992 C135.677,45.992 136.509,45.352 136.509,42.408 C136.509,40.297 135.485,37.353 133.693,34.281 C132.285,31.913 131.069,30.313 128.381,27.241 C131.517,21.994 133.629,17.194 135.549,10.923 L125.181,10.923 L125.181,53.800 C125.181,57.127 125.309,59.623 125.565,61.479 L117.758,61.479 C118.014,59.431 118.142,56.871 118.142,53.736 L118.142,9.451 C118.142,7.467 118.078,5.931 117.950,4.139 C119.550,4.331 121.150,4.395 123.518,4.395 L135.421,4.395 C138.172,4.395 139.516,4.331 140.860,4.075 L144.316,8.747 C143.676,10.091 143.676,10.091 143.292,11.051 C141.628,15.594 138.620,22.250 135.997,27.177 ZM104.703,41.704 C103.871,45.480 102.911,48.104 101.247,51.240 C98.943,55.399 96.895,57.767 92.352,61.287 C90.624,58.919 89.280,57.575 86.720,55.655 C90.560,53.096 92.288,51.496 94.208,48.808 C95.808,46.568 96.831,44.392 97.599,41.704 L92.672,41.704 C90.304,41.704 88.384,41.832 86.400,42.024 L86.400,34.985 C88.192,35.241 90.048,35.305 92.864,35.305 L98.623,35.305 C98.815,33.193 98.879,31.849 99.071,28.649 L93.952,28.649 C91.712,28.649 90.048,28.713 88.512,28.905 L88.512,22.250 C89.856,22.442 91.520,22.506 93.952,22.506 L99.263,22.506 C99.263,20.906 99.263,20.330 99.263,19.306 L99.263,16.234 L93.696,16.234 C91.264,16.234 89.216,16.362 87.168,16.554 L87.168,9.515 C89.152,9.707 91.328,9.835 93.824,9.835 L99.263,9.835 L99.263,9.003 C99.263,6.635 99.135,4.715 98.943,2.731 L106.431,2.731 C106.175,4.395 106.111,5.803 106.111,9.835 L109.631,9.835 C112.382,9.835 113.982,9.771 115.966,9.579 L115.966,16.490 C113.982,16.362 111.870,16.234 109.695,16.234 L106.111,16.234 L106.111,22.506 L109.439,22.506 C111.678,22.506 113.470,22.442 115.006,22.250 L115.006,28.905 C113.534,28.713 111.806,28.649 109.631,28.649 L105.919,28.649 C105.791,31.529 105.727,32.553 105.535,35.305 L109.695,35.305 C112.702,35.305 114.174,35.241 115.966,35.049 L115.966,42.024 C114.174,41.768 112.254,41.704 109.503,41.704 L104.703,41.704 ZM167.680,17.386 L175.104,17.386 C174.912,18.858 174.848,20.202 174.848,23.082 L174.848,52.584 L215.549,52.584 L215.549,22.954 C215.549,20.394 215.485,18.986 215.229,17.386 L222.716,17.386 C222.460,19.626 222.332,22.314 222.332,24.554 L222.332,53.224 C222.332,56.551 222.460,59.111 222.780,61.799 L215.357,61.799 L215.357,58.791 L174.976,58.791 L174.976,61.799 L167.680,61.799 C167.936,59.111 168.064,56.679 168.064,53.288 L168.064,24.490 C168.064,21.930 167.936,19.690 167.680,17.386 ZM280.446,39.209 C277.886,42.472 277.118,44.008 277.118,46.312 C277.118,49.576 280.318,51.240 286.717,51.240 C291.389,51.240 297.533,50.216 301.244,48.872 L301.820,56.679 C300.668,56.807 300.348,56.871 298.684,57.127 C293.373,57.959 290.557,58.215 286.781,58.215 C281.086,58.215 276.990,57.383 273.918,55.655 C271.166,54.056 269.375,50.984 269.375,47.784 C269.375,44.392 270.590,41.512 274.110,36.649 L280.446,39.209 Z" class="cls-2"/>
      <path d="M59.000,2.000 L59.000,62.000 L9.000,62.000 L59.000,2.000 Z" class="cls-3"/>
    </g>
  </g>
</svg>
