<svg xmlns="http://www.w3.org/2000/svg" width="512" height="128" viewBox="0 0 512 128"><title>邦画だってさ</title><path d="M476.605 49.092c-1.08.288-4.608 1.008-10.585 2.16a857.284 857.284 0 0 0 4.969 9.145c1.944 3.312 5.112 7.992 7.633 11.377l-8.353 3.816c-1.8-1.656-2.952-2.376-4.969-3.096-3.24-1.08-7.056-1.656-11.377-1.656-9.792 0-15.553 2.952-15.553 8.064 0 4.681 5.329 7.273 15.121 7.273 7.633 0 16.058-1.872 21.674-4.824l1.152 9.216c-8.928 2.737-15.625 3.889-22.826 3.889-9.216 0-16.345-1.945-20.017-5.473-2.737-2.592-4.249-6.12-4.249-9.721 0-4.104 1.872-7.92 5.185-10.729 4.176-3.528 10.153-5.184 18.361-5.184 4.681 0 8.857.72 12.457 2.16-2.952-4.032-3.024-4.248-7.776-13.105-6.337.864-16.994 1.584-25.562 1.728-1.801.072-2.089.072-3.169.216l-.648-8.641c2.16.288 4.033.36 6.985.36 5.4 0 14.977-.648 19.441-1.224-1.224-3.168-4.32-10.801-4.68-11.377l9.289-1.224c.432 2.448 1.728 6.265 3.96 11.521 7.417-1.296 13.825-2.808 17.642-4.248l1.008 8.569c-1.872.288-2.664.504-5.113 1.008zm-84.456 2.088c-9.145 4.752-14.546 11.953-14.546 19.226 0 5.616 3.529 9.936 9.577 11.737 3.529 1.08 8.137 1.872 10.729 1.872.072 0 .72 0 1.44-.072l-1.296 9.793c-.864-.216-1.224-.288-2.448-.432-7.921-1.009-12.457-2.305-16.849-4.753-6.625-3.744-10.297-9.865-10.297-17.353 0-6.121 2.448-12.169 6.84-16.994 2.736-2.952 5.329-4.824 10.009-7.2-5.832.864-8.641 1.08-24.266 2.232-4.824.36-9.145.864-11.953 1.44l-.504-9.361c1.584.072 2.376.072 2.736.072 1.296 0 1.296 0 11.881-.72 4.033-.216 15.986-.864 35.931-1.8 5.905-.288 6.985-.36 8.281-.72l.504 9.217c-.792-.072-.792-.072-1.512-.072-4.32 0-9.649 1.44-14.257 3.888zm-96.77 43.348c-.72-3.601-1.296-4.969-3.097-8.209h1.08c2.665 0 6.697-.432 10.225-1.08 5.617-1.08 8.785-2.376 12.025-4.897 3.457-2.592 5.113-5.76 5.113-9.72 0-5.617-4.177-8.641-11.809-8.641-4.969 0-10.513.792-18.938 2.808-4.608 1.08-5.904 1.44-8.353 2.448l-1.8-8.64c2.016-.144 2.016-.144 7.489-1.369 9.793-2.16 16.273-3.024 22.25-3.024 8.209 0 13.753 2.376 16.993 7.345 1.801 2.736 2.665 5.76 2.665 9.289 0 9.576-6.769 17.353-18.218 20.953-4.464 1.369-6.265 1.657-15.625 2.737zm-45.502-61.854l4.825-2.52c3.24 3.312 5.256 6.049 7.488 10.153l-4.968 2.808c-2.16-3.96-4.537-7.344-7.345-10.441zm-1.296 14.978c-2.376-4.393-4.392-7.273-7.561-10.729l5.041-2.521c3.168 3.385 5.112 6.121 7.561 10.585l-5.041 2.665zm9.217 6.408l.144 8.569c-3.456-.36-5.473-.504-9.073-.504-7.128 0-11.881.504-19.01 2.16l-.648-7.993c10.153-1.944 13.682-2.304 21.458-2.304 2.16 0 3.817 0 7.129.072zm-23.258-3.528l-1.656.288c-4.825.864-10.081 1.512-11.809 1.512-2.665 13.897-6.265 25.922-12.529 42.412l-9.073-3.529c4.68-8.352 10.441-25.706 12.889-38.595h-.72l-1.584-.072H204.945c-1.008-.072-2.304-.072-2.88-.072-.36 0-.72 0-1.368.072l.144-8.353c2.592.432 5.472.648 9.649.648.864 0 1.656 0 3.312-.072.648-3.456 1.368-9 1.368-11.017 0-.288 0-.72-.072-1.296l9.505.864c-.432 1.584-.504 1.945-1.152 5.617-.144.864-.288 1.872-.504 3.168-.072.36-.216.936-.432 2.232 4.68-.432 8.929-1.152 12.313-2.16l.36 8.281c-.36.072-.576.072-.648.072zm-84.6-10.513v6.408h8.569c2.592 0 4.248-.072 5.904-.288-.216 1.585-.288 3.097-.288 5.401v25.778c0 2.664.072 3.744.288 5.329-1.872-.216-3.024-.288-6.336-.288h-23.258c-3.457 0-4.609.072-6.481.288.216-1.729.288-2.737.288-5.329V51.54c0-2.304-.072-3.6-.288-5.401 1.656.216 3.312.288 5.904.288h8.353v-6.408h-19.801c-3.241 0-5.905.144-8.857.432V32.53c2.664.288 5.328.432 8.712.432h47.525c3.24 0 6.048-.144 8.856-.432v7.921c-2.592-.288-5.832-.432-8.784-.432H149.94zm0 35.931h7.272v-8.785h-7.272v8.785zm0-15.265h7.272v-7.561h-7.272v7.561zm-7.345-7.561h-6.984v7.561h6.984v-7.561zm0 14.041h-6.984v8.785h6.984v-8.785zm-57.021-8.64c4.176 4.824 5.832 7.344 7.272 11.449a22.866 22.866 0 0 1 1.296 7.56c0 7.489-3.096 10.009-12.097 10.009-1.8 0-2.736-.072-5.112-.288-.144-3.168-.576-5.184-1.944-8.209 2.52.504 4.248.648 5.976.648 4.249 0 5.185-.72 5.185-4.032 0-2.376-1.152-5.688-3.169-9.145-1.584-2.664-2.952-4.464-5.976-7.92 3.528-5.905 5.904-11.305 8.065-18.362H73.405v48.244c0 3.744.144 6.553.432 8.641h-8.785c.288-2.304.432-5.185.432-8.713V38.579a78.57 78.57 0 0 0-.216-5.977c1.8.216 3.6.288 6.264.288h13.394c3.096 0 4.608-.072 6.12-.36l3.888 5.257c-.72 1.512-.72 1.512-1.152 2.592-1.872 5.112-5.256 12.601-8.208 18.146zM50.363 74.87c-.937 4.248-2.017 7.201-3.889 10.729-2.592 4.68-4.896 7.345-10.009 11.305-1.944-2.664-3.456-4.177-6.336-6.337 4.32-2.88 6.264-4.68 8.425-7.704 1.8-2.521 2.952-4.969 3.816-7.993h-5.545c-2.664 0-4.824.144-7.056.36v-7.921c2.016.288 4.104.36 7.272.36h6.481c.216-2.376.288-3.888.504-7.488h-5.761c-2.52 0-4.392.072-6.12.288V52.98c1.512.216 3.384.288 6.12.288h5.977v-7.057h-6.265c-2.736 0-5.04.144-7.344.361v-7.921c2.232.216 4.68.36 7.488.36h6.121v-.936c0-2.664-.144-4.825-.36-7.057h8.425c-.288 1.872-.36 3.456-.36 7.993h3.96c3.096 0 4.896-.072 7.129-.288v7.776c-2.233-.144-4.609-.288-7.057-.288h-4.032v7.057h3.744c2.52 0 4.536-.072 6.265-.288v7.489c-1.657-.216-3.601-.288-6.049-.288h-4.176c-.144 3.24-.216 4.392-.432 7.488h4.68c3.384 0 5.04-.072 7.057-.288v7.849c-2.017-.288-4.177-.36-7.273-.36h-5.4zm65.086-27.362h8.353c-.216 1.656-.288 3.168-.288 6.408v33.195h45.796V53.772c0-2.88-.072-4.464-.361-6.264h8.425c-.288 2.52-.432 5.544-.432 8.064v32.259c0 3.744.144 6.625.504 9.649h-8.352v-3.384h-45.436v3.384h-8.209c.288-3.024.432-5.761.432-9.577V55.5c0-2.88-.144-5.4-.432-7.992zm121.107 24.554c-2.88 3.672-3.744 5.4-3.744 7.992 0 3.673 3.6 5.545 10.801 5.545 5.256 0 12.169-1.152 16.345-2.664l.648 8.784c-1.296.144-1.656.216-3.528.504-5.977.937-9.145 1.225-13.393 1.225-6.409 0-11.017-.937-14.474-2.881-3.096-1.8-5.112-5.256-5.112-8.856 0-3.817 1.368-7.057 5.328-12.53l7.129 2.881z" fill="#444"/></svg>
